<?xml version="1.0" encoding="UTF-8"?>
<svg width="16px" height="16px" viewBox="0 0 16 16" version="1.1" xmlns="http://www.w3.org/2000/svg" xmlns:xlink="http://www.w3.org/1999/xlink">
    <!-- Generator: Sketch 54 (76480) - https://sketchapp.com -->
    <title>home_ico_notice_h</title>
    <desc>Created with Sketch.</desc>
    <g id="home_ico_notice_h" stroke="none" stroke-width="1" fill="none" fill-rule="evenodd">
        <g transform="translate(0.994625, 0.773822)" fill="#4E565F" fill-rule="nonzero" id="Shape">
            <path d="M9.09412566,14.358918 L4.17931034,10.6724138 L0.312068966,10.6724138 C0.146383541,10.6724138 0.0120689655,10.5380992 0.0120689655,10.3724138 L0.0120689655,4.35172414 C0.0120689655,4.18603871 0.146383541,4.05172414 0.312068966,4.05172414 L4.18103448,4.05172414 L9.09408884,0.365362702 C9.22661684,0.265924334 9.41466273,0.29274878 9.5141011,0.425276781 C9.55307096,0.477214458 9.57413793,0.540393814 9.57413793,0.605325874 L9.57413793,14.1189272 C9.57413793,14.2846126 9.43982336,14.4189272 9.27413793,14.4189272 C9.20922162,14.4189272 9.14605672,14.3978704 9.09412566,14.358918 Z M1.48275862,9.20172414 L4.67068966,9.20172414 L8.10344828,11.7758621 L8.10344828,2.94827586 L4.67068966,5.52241379 L1.48275862,5.52241379 L1.48275862,9.20172414 Z M12.762069,11.4258621 L11.5362069,10.612069 C12.1775862,9.64655172 12.5172414,8.52241379 12.5172414,7.36206897 C12.5172414,6.20172414 12.1775862,5.07758621 11.5362069,4.11206897 L12.762069,3.29827586 C13.0841483,3.78381916 13.3452892,4.30108388 13.5424732,4.84023291 C13.8361223,5.64314064 13.987931,6.49458239 13.987931,7.36206897 C13.987931,8.81206897 13.5637931,10.2172414 12.762069,11.4258621 Z"></path>
        </g>
    </g>
</svg>